# Blender 3.6.1
# www.blender.org
mtllib bababalong.mtl
o w_357
v 0.231598 -1.284214 1.896531
v 0.230420 -1.387103 2.824815
v 0.230568 -0.985145 3.708266
v 0.228119 -1.284843 1.896803
v 0.230439 -1.283583 1.896253
v -0.154116 -0.661103 1.624977
v -0.123050 0.101953 3.934101
v 0.615033 -0.661120 1.624991
v 0.615096 1.845017 1.238567
v 0.615118 3.082547 1.631573
v 0.596157 2.927148 5.041697
v 0.615014 1.321762 5.104420
v 0.552834 1.352551 5.158438
v 0.552815 0.256396 4.853325
v -0.091954 1.352567 5.158431
v -0.091973 0.256409 4.853314
v -0.154152 0.311399 4.804073
v -0.154134 1.321780 5.104403
v -0.138083 2.931971 5.025085
v -0.154031 3.082566 1.631558
v 0.066632 8.928882 63.731869
v 0.044041 8.673051 65.357147
v 0.583917 0.101937 3.934113
v 0.614996 0.311382 4.804086
v -0.101541 -3.581723 -1.749590
v -0.154107 -3.012683 -1.868827
v 0.230474 -2.946974 -2.107105
v -0.629156 -2.446652 -0.647665
v -0.154085 -2.030098 -1.797783
v -0.576876 -1.735139 -0.803481
v -0.154055 -0.545144 -1.605684
v -0.444075 -0.862075 -0.697666
v -0.154037 1.013358 -0.627050
v 0.230483 -0.765441 0.153647
v -0.154038 1.306171 -0.198229
v 0.037029 -0.544925 0.799282
v -0.154047 1.332599 0.347627
v -0.154053 1.845034 1.238554
v -0.154016 3.526575 1.358759
v 0.615133 3.526556 1.358773
v 0.230494 -1.964388 -2.036061
v 0.230525 -0.479434 -1.843963
v 0.230543 1.079068 -0.865329
v 0.615041 -3.012701 -1.868813
v 0.562448 -3.581738 -1.749578
v 0.615062 -2.030115 -1.797770
v 0.615093 -0.545161 -1.605670
v 0.615111 1.013339 -0.627037
v 0.230539 1.339020 -0.317364
v 0.615110 1.306153 -0.198215
v 0.615101 1.332581 0.347641
v 0.423922 -0.544933 0.799291
v 0.230467 -1.518670 0.073710
v 0.230434 -2.598257 0.577435
v 1.090072 -2.446691 -0.647634
v 1.037830 -1.735176 -0.803452
v 0.905068 -0.862106 -0.697641
v 0.230459 -3.516099 -1.987603
v 0.230435 -4.014183 -1.300907
v -0.549320 -3.075561 -0.569953
v 1.010208 -3.075597 -0.569924
v 0.230421 -3.183297 0.554146
v -0.210710 -3.603914 -0.742153
v 0.230421 -3.993069 -0.507773
v 0.230419 -3.597626 0.140171
v 0.230420 -3.484215 0.254537
v 0.671578 -3.603935 -0.742138
v -0.036280 2.085383 0.958482
v -0.036297 1.386146 1.019679
v 0.230531 2.769235 1.871656
v -0.036263 2.221061 0.208461
v -0.036258 2.454140 0.188064
v 0.497368 2.454130 0.188072
v 0.497363 2.221050 0.208471
v 0.497328 1.386133 1.019686
v 0.415013 8.673044 65.357178
v 0.392483 9.512209 65.051109
v 0.066621 9.512217 65.051071
v 0.416800 8.626556 65.400215
v -0.132311 2.938413 5.022819
v 0.044040 8.626566 65.400169
v -0.145076 2.568587 5.068442
v -0.146027 8.266023 65.431755
v 0.066904 2.242329 5.096997
v 0.065952 7.939970 65.462730
v -0.057370 1.991759 5.118925
v -0.058322 7.689610 65.486961
v 0.067355 1.756213 5.139539
v 0.066402 7.454063 65.507584
v 0.229496 7.389709 65.513214
v 0.230448 1.691857 5.145172
v 0.393545 1.756207 5.139547
v 0.392592 7.454058 65.507591
v 0.517329 7.689596 65.486969
v 0.518282 1.991746 5.118934
v 0.393068 7.939962 65.462723
v 0.394020 2.242322 5.097000
v 0.605062 8.266003 65.431755
v 0.606013 2.568569 5.068452
v 0.879996 0.731013 2.325164
v 0.879966 0.896114 4.211730
v 0.230440 0.604272 4.237267
v 0.230470 0.439172 2.350700
v -0.668374 2.750355 4.049439
v -0.668345 2.585251 2.162868
v -1.006222 2.002295 2.213882
v -1.006253 2.167397 4.100448
v -0.751921 2.124637 4.421047
v -0.698516 1.635594 4.463848
v 0.230463 1.816341 4.448044
v -0.266974 1.138543 4.507350
v 0.230441 0.894597 4.528706
v -0.419072 0.896142 4.211708
v -0.419042 0.731042 2.325140
v 0.230481 0.674465 2.013250
v 0.729747 0.919664 1.991801
v 1.160301 1.418861 1.948120
v 0.230504 1.612542 1.931155
v 1.212026 1.907686 1.905342
v 0.943502 2.371034 1.864788
v 0.230529 2.630724 1.842051
v -0.482456 2.371068 1.864761
v -0.751004 1.907733 1.905309
v -0.955632 1.383729 2.268011
v -0.955662 1.548831 4.154581
v -0.699301 1.418904 1.948088
v -0.268772 0.919686 1.991782
v 1.467238 2.002238 2.213929
v 1.129387 2.585213 2.162901
v 1.129360 2.750314 4.049468
v 0.230500 3.053057 4.022974
v 0.945199 2.589473 4.380395
v 0.230489 2.824264 4.359836
v -0.484233 2.589506 4.380369
v 0.230530 2.909140 2.134526
v 1.212864 2.124591 4.421082
v 1.467208 2.167339 4.100495
v 1.416618 1.383673 2.268056
v 1.416586 1.548777 4.154624
v 0.727868 1.138522 4.507366
v 1.159433 1.635550 4.463880
v 0.392494 8.928875 63.731915
v 0.497344 2.085373 0.958493
vn 0.0082 -0.9866 0.1629
vn -1.0000 0.0012 -0.0011
vn -0.9415 -0.3212 0.1016
vn -0.0841 -0.9657 -0.2457
vn 0.2428 -0.7270 -0.6423
vn -0.9803 -0.1970 -0.0166
vn -0.8298 -0.4515 0.3280
vn 0.9802 -0.1975 -0.0158
vn 0.8295 0.2967 -0.4732
vn 1.0000 -0.0005 0.0022
vn 0.9456 0.0172 0.3249
vn 0.8833 -0.0732 0.4630
vn 0.3244 -0.0801 0.9425
vn 0.3697 -0.6892 0.6231
vn -0.3272 -0.0796 0.9416
vn -0.3714 -0.6873 0.6242
vn -0.9058 -0.3109 0.2880
vn -0.8807 -0.0786 0.4671
vn -0.9482 0.0208 0.3169
vn -1.0000 -0.0002 0.0018
vn -0.9991 0.0424 -0.0070
vn -0.9984 -0.0529 -0.0215
vn 0.8298 -0.4514 0.3281
vn 0.9064 -0.3134 0.2831
vn 0.8689 -0.3497 0.3504
vn 0.8958 -0.4385 0.0722
vn 1.0000 -0.0003 -0.0000
vn -0.6925 -0.5227 -0.4973
vn -0.7623 -0.0944 -0.6403
vn -0.0000 -0.0654 -0.9979
vn -0.9875 0.0343 0.1536
vn -0.7604 0.0589 -0.6467
vn -0.9902 0.0887 0.1075
vn -0.7660 0.2315 -0.5997
vn -0.9677 0.1297 0.2163
vn -0.8454 0.4348 -0.3104
vn -0.0000 -0.1734 0.9849
vn -0.7521 0.6310 -0.1904
vn -0.9609 -0.1753 -0.2142
vn -0.7868 0.5861 -0.1937
vn -0.8294 0.2968 -0.4732
vn -0.3683 0.0663 -0.9273
vn 0.3683 0.0663 -0.9273
vn -0.0000 0.1018 -0.9948
vn -0.0000 0.3332 -0.9429
vn -0.0000 0.7152 -0.6989
vn 0.7623 -0.0944 -0.6403
vn 0.6925 -0.5227 -0.4972
vn 0.7605 0.0588 -0.6467
vn 0.7661 0.2314 -0.5997
vn 0.8454 0.4347 -0.3103
vn 0.0087 0.9553 -0.2955
vn 0.7403 0.6497 -0.1727
vn 0.7836 0.5871 -0.2033
vn 0.9609 -0.1753 -0.2141
vn -0.0000 0.1263 0.9920
vn -0.0000 0.1619 0.9868
vn 0.9875 0.0342 0.1536
vn 0.9902 0.0887 0.1075
vn 0.9677 0.1297 0.2163
vn -0.0000 -0.4645 -0.8856
vn -0.0000 -0.9791 -0.2032
vn -0.9325 -0.3092 0.1868
vn 0.9325 -0.3093 0.1868
vn -0.0000 -0.3820 0.9242
vn -0.8162 -0.5776 0.0149
vn -0.0000 -0.9515 0.3077
vn -0.0000 -0.7527 0.6583
vn -0.0000 -0.7067 0.7075
vn 0.8162 -0.5776 0.0149
vn -0.9910 0.0117 0.1335
vn -0.9914 0.0115 0.1307
vn -0.9641 0.0232 0.2644
vn -1.0000 -0.0000 -0.0000
vn -0.0000 -0.4161 -0.9093
vn -0.0000 -0.0872 -0.9962
vn -0.0006 -0.4159 -0.9094
vn -0.0000 -0.6969 -0.7172
vn -0.0001 0.3427 0.9395
vn -0.0001 0.3426 0.9395
vn 0.5180 0.8516 -0.0803
vn 0.7034 0.7079 -0.0648
vn -0.6881 0.7226 -0.0661
vn -0.5163 0.8527 -0.0804
vn -0.9646 -0.2624 0.0263
vn -0.9990 -0.0442 0.0042
vn -0.9985 -0.0554 0.0052
vn -0.9984 -0.0570 0.0054
vn -0.9999 -0.0152 0.0014
vn -0.9999 -0.0126 0.0012
vn -0.6671 -0.7417 0.0700
vn -0.6686 -0.7404 0.0699
vn -0.0000 -0.9956 0.0940
vn 0.6670 -0.7417 0.0700
vn 0.6685 -0.7404 0.0699
vn 0.9999 -0.0126 0.0012
vn 0.9999 -0.0152 0.0015
vn 0.9984 -0.0570 0.0054
vn 0.9985 -0.0554 0.0052
vn 0.9989 -0.0462 0.0044
vn 0.9624 -0.2703 0.0271
vn -0.9893 0.1456 0.0091
vn -0.9987 0.0505 -0.0059
vn -0.9997 0.0232 -0.0102
vn 0.5759 -0.7771 -0.2538
vn 0.5742 -0.7197 0.3904
vn 0.0029 -0.9165 0.3999
vn -0.0000 -0.9728 -0.2315
vn -0.6041 0.7555 0.2536
vn -0.6108 0.6953 -0.3788
vn -0.9234 0.1802 -0.3390
vn -0.9231 0.2346 0.3048
vn -0.4793 0.1715 0.8607
vn -0.4484 -0.1281 0.8846
vn -0.0000 0.0872 0.9962
vn -0.2922 -0.2882 0.9119
vn 0.0077 -0.4332 0.9012
vn -0.5777 -0.7187 0.3870
vn -0.5759 -0.7771 -0.2538
vn -0.0000 -0.5800 -0.8146
vn 0.2876 -0.4428 -0.8493
vn 0.4444 -0.2743 -0.8528
vn 0.4749 0.0252 -0.8797
vn 0.3131 0.3065 -0.8989
vn -0.0000 0.4277 -0.9039
vn -0.3131 0.3065 -0.8989
vn -0.4748 0.0252 -0.8797
vn -0.8804 -0.3781 -0.2861
vn -0.8791 -0.3217 0.3516
vn -0.4444 -0.2743 -0.8528
vn -0.2876 -0.4428 -0.8493
vn 0.9234 0.1802 -0.3389
vn 0.6108 0.6953 -0.3788
vn 0.6041 0.7555 0.2537
vn -0.0000 0.9728 0.2317
vn 0.3097 0.4638 0.8301
vn -0.0000 0.5685 0.8227
vn -0.3097 0.4638 0.8301
vn -0.0000 0.9223 -0.3866
vn 0.4793 0.1715 0.8608
vn 0.9231 0.2345 0.3049
vn 0.8804 -0.3782 -0.2861
vn 0.8791 -0.3217 0.3517
vn 0.2894 -0.2946 0.9108
vn 0.4483 -0.1281 0.8846
vn -0.0000 0.8944 0.4473
vn -0.0000 0.5235 0.8520
vn 0.0001 0.9677 -0.2522
vn 0.0001 0.9146 -0.4044
vn -0.0000 0.9987 -0.0504
vn -0.0000 0.8004 -0.5994
vn -0.0000 0.9020 0.4317
vn 0.9982 0.0592 -0.0045
vn 0.9997 0.0231 -0.0102
vn 0.9995 0.0314 -0.0089
vn 0.0004 -0.3994 -0.9168
vn 0.0006 -0.3993 -0.9168
vn -0.0000 -0.8347 -0.5507
vn -0.0000 -0.8349 -0.5504
vn -0.0000 -0.9984 0.0559
vn -0.0000 -0.9463 0.3232
vn -0.0016 0.0899 0.9959
vn -0.0026 0.0902 0.9959
vn -0.0002 0.0917 0.9958
vn -0.0000 0.0954 0.9954
vn 0.0029 0.0912 0.9958
vn 0.0026 0.0902 0.9959
vn 0.0002 0.0913 0.9958
vn 0.0064 0.0904 0.9959
vn 0.0015 0.0906 0.9959
vn -0.0034 0.0920 0.9958
vn -0.0101 0.0922 0.9957
vn 1.0000 -0.0000 -0.0000
vn 0.9910 0.0117 0.1336
vn 0.9913 0.0114 0.1307
vn 0.9641 0.0231 0.2644
vt 0.727915 0.335010
vt 0.661332 0.309095
vt 0.580449 0.329193
vt 0.726720 0.335413
vt 0.752984 0.425179
vt 0.568255 0.455068
vt 0.742988 0.771690
vt 0.707620 0.936073
vt 0.472417 0.874921
vt 0.473473 0.653974
vt 0.469471 0.657534
vt 0.497766 0.511416
vt 0.501865 0.512182
vt 0.113427 0.926941
vt 0.000338 0.872554
vt 0.569983 0.453669
vt 0.991071 0.048057
vt 0.992216 0.114940
vt 0.902564 0.181476
vt 0.986677 0.196739
vt 0.905865 0.244212
vt 0.935885 0.469797
vt 0.896308 0.424970
vt 0.879747 0.680365
vt 0.830986 0.423377
vt 0.844378 0.696347
vt 0.785431 0.431507
vt 0.809010 0.712329
vt 0.724125 1.000000
vt 0.988489 0.285844
vt 0.945523 0.478343
vt 0.935330 0.468031
vt 0.828418 0.286210
vt 0.817103 0.134512
vt 0.909165 0.306948
vt 0.991034 0.048072
vt 0.957016 0.017715
vt 0.905621 0.114391
vt 0.835584 0.082051
vt 0.908677 0.047307
vt 0.920903 0.032651
vt 0.854087 0.029594
vt 0.848945 0.043928
vt 0.916641 0.021693
vt 0.761264 0.807878
vt 0.761264 0.711609
vt 0.692615 0.890394
vt 0.813343 0.835383
vt 0.813343 0.867473
vt 0.016752 0.990868
vt 0.475909 0.872554
vt 0.476580 0.870054
vt 0.477920 0.827405
vt 0.000338 0.827405
vt 0.477751 0.782488
vt 0.000169 0.782488
vt 0.477582 0.747990
vt 0.000000 0.747990
vt 0.477582 0.713260
vt 0.000000 0.713260
vt 0.475909 0.868804
vt 0.535688 0.849185
vt 0.673963 0.849277
vt 0.673953 0.883633
vt 0.535678 0.883541
vt 0.674029 0.631005
vt 0.535753 0.630913
vt 0.535733 0.699538
vt 0.674008 0.699630
vt 0.692279 0.707915
vt 0.692262 0.765483
vt 0.692269 0.744204
vt 0.692245 0.823993
vt 0.692236 0.852708
vt 0.517414 0.852591
vt 0.517422 0.823726
vt 0.517440 0.764961
vt 0.517447 0.742164
vt 0.517457 0.707418
vt 0.517473 0.652874
vt 0.517482 0.622307
vt 0.535711 0.772354
vt 0.673986 0.772446
vt 0.674040 0.595370
vt 0.692296 0.653191
vt 0.692304 0.625554
vt 0.535764 0.592784
vt 0.000141 0.776160
s 1
usemtl w_357_long_devplat
f 1/1/1 2/2/2 3/3/3
f 4/1/4 1/4/1 3/3/3
f 2/2/2 4/1/4 5/1/5
f 4/1/4 6/5/6 5/1/5
f 4/1/4 3/3/3 6/5/6
f 3/3/3 7/6/7 6/5/6
f 8/5/8 9/7/9 10/8/10
f 8/5/8 10/8/10 11/9/11
f 8/5/8 11/9/11 12/10/12
f 13/11/13 12/10/12 11/9/11
f 12/10/12 13/11/13 14/12/14
f 14/12/14 13/11/13 15/11/15
f 15/11/15 16/12/16 14/12/14
f 17/13/17 16/12/16 15/11/15
f 16/12/16 17/13/17 7/6/7
f 7/6/7 17/13/17 18/10/18
f 18/10/18 6/5/6 7/6/7
f 6/5/6 18/10/18 19/9/19
f 6/5/6 19/9/19 20/8/20
f 21/14/21 20/8/20 19/9/19
f 19/9/19 22/15/22 21/14/21
f 13/11/13 11/9/11 19/9/19
f 19/9/19 15/11/15 13/11/13
f 19/9/19 18/10/18 15/11/15
f 15/11/15 18/10/18 17/13/17
f 23/16/23 8/5/8 12/10/12
f 12/10/12 24/13/24 23/16/23
f 14/12/14 24/13/24 12/10/12
f 23/16/23 24/13/24 14/12/14
f 23/16/23 14/12/14 16/12/16
f 16/12/16 7/6/7 23/16/23
f 23/16/23 7/6/7 3/3/25
f 3/3/25 8/5/8 23/16/23
f 8/5/8 3/3/25 5/1/26
f 5/1/26 3/3/25 2/2/27
f 25/17/28 26/18/29 27/18/30
f 28/19/31 26/18/29 25/17/28
f 29/20/32 26/18/29 28/19/31
f 28/19/31 30/21/33 29/20/32
f 31/22/34 29/20/32 30/21/33
f 30/21/33 32/23/35 31/22/34
f 33/24/36 31/22/34 32/23/35
f 33/24/36 32/23/35 34/25/37
f 35/26/38 33/24/36 34/25/37
f 34/25/37 36/27/39 35/26/38
f 37/28/40 35/26/38 36/27/39
f 36/27/39 6/5/6 37/28/40
f 37/28/40 6/5/6 38/7/41
f 6/5/6 20/8/20 38/7/41
f 38/7/41 20/8/20 39/29/42
f 38/7/41 39/29/42 40/29/43
f 40/29/43 9/7/9 38/7/41
f 9/7/9 40/29/43 10/8/10
f 27/18/30 26/18/29 29/20/32
f 29/20/32 41/30/44 27/18/30
f 41/30/44 29/20/32 31/22/34
f 31/22/34 42/31/45 41/30/44
f 42/31/45 31/22/34 33/24/36
f 33/24/36 43/24/46 42/31/45
f 27/18/30 44/18/47 45/17/48
f 46/30/49 44/18/47 27/18/30
f 27/18/30 41/30/44 46/30/49
f 47/32/50 46/30/49 41/30/44
f 41/30/44 42/31/45 47/32/50
f 48/24/51 47/32/50 42/31/45
f 42/31/45 43/24/46 48/24/51
f 48/24/51 43/24/46 49/26/52
f 49/26/52 43/24/46 33/24/36
f 33/24/36 35/26/38 49/26/52
f 49/26/52 35/26/38 37/28/40
f 50/26/53 49/26/52 37/28/40
f 37/28/40 51/28/54 50/26/53
f 52/27/55 50/26/53 51/28/54
f 51/28/54 8/5/8 52/27/55
f 51/28/54 9/7/9 8/5/8
f 9/7/9 51/28/54 37/28/40
f 37/28/40 38/7/41 9/7/9
f 49/26/52 50/26/53 48/24/51
f 34/25/37 48/24/51 50/26/53
f 50/26/53 52/27/55 34/25/37
f 53/33/56 54/34/57 55/19/58
f 55/19/58 56/35/59 53/33/56
f 34/25/37 53/33/56 56/35/59
f 56/35/59 57/23/60 34/25/37
f 48/24/51 34/25/37 57/23/60
f 48/24/51 57/23/60 47/32/50
f 47/32/50 57/23/60 56/35/59
f 56/35/59 46/30/49 47/32/50
f 46/30/49 56/35/59 55/19/58
f 55/19/58 44/18/47 46/30/49
f 25/17/28 58/36/61 59/37/62
f 60/38/63 25/17/28 59/37/62
f 25/17/28 60/38/63 28/19/31
f 54/34/57 28/19/31 60/38/63
f 28/19/31 54/34/57 53/33/56
f 53/33/56 30/21/33 28/19/31
f 30/21/33 53/33/56 34/25/37
f 34/25/37 32/23/35 30/21/33
f 45/17/48 44/18/47 55/19/58
f 55/19/58 61/38/64 45/17/48
f 61/38/64 55/19/58 54/34/57
f 54/34/57 62/39/65 61/38/64
f 60/38/63 62/39/65 54/34/57
f 62/39/65 60/38/63 63/40/66
f 59/37/62 63/40/66 60/38/63
f 59/37/62 64/41/67 63/40/66
f 63/40/66 64/41/67 65/42/68
f 63/40/66 65/42/68 66/43/69
f 66/43/69 65/42/68 67/40/70
f 62/39/65 66/43/69 67/40/70
f 62/39/65 67/40/70 61/38/64
f 61/38/64 67/40/70 59/37/62
f 59/37/62 45/17/48 61/38/64
f 45/17/48 59/37/62 58/36/61
f 45/17/48 58/36/61 27/18/30
f 27/18/30 58/36/61 25/17/28
f 62/39/65 63/40/66 66/43/69
f 59/37/62 67/40/70 64/44/67
f 67/40/70 65/42/68 64/44/67
f 68/45/71 69/46/72 70/47/73
f 69/46/72 68/45/71 71/48/74
f 71/48/74 68/45/71 72/49/74
f 71/48/75 72/49/76 73/49/76
f 73/49/76 74/48/77 71/48/75
f 69/46/78 71/48/75 74/48/77
f 74/48/77 75/46/78 69/46/78
f 22/15/79 76/15/80 77/50/79
f 77/50/79 78/50/79 22/15/79
f 79/15/81 11/51/82 80/52/83
f 80/52/83 81/15/84 79/15/81
f 81/15/84 80/52/83 82/53/85
f 82/53/85 83/54/86 81/15/84
f 83/54/86 82/53/85 84/55/87
f 84/55/87 85/56/88 83/54/86
f 85/56/88 84/55/87 86/57/89
f 86/57/89 87/58/90 85/56/88
f 87/58/90 86/57/89 88/59/91
f 88/59/91 89/60/92 87/58/90
f 90/60/93 89/60/92 88/59/91
f 88/59/91 91/59/93 90/60/93
f 90/60/93 91/59/93 92/59/94
f 92/59/94 93/60/95 90/60/93
f 94/58/96 93/60/95 92/59/94
f 92/59/94 95/57/97 94/58/96
f 96/56/98 94/58/96 95/57/97
f 95/57/97 97/55/99 96/56/98
f 98/54/100 96/56/98 97/55/99
f 97/55/99 99/53/101 98/54/100
f 79/15/81 98/54/100 99/53/101
f 99/53/101 11/61/82 79/15/81
f 21/14/102 22/15/103 78/50/104
f 100/62/105 101/63/106 102/64/107
f 102/64/107 103/65/108 100/62/105
f 104/66/109 105/67/110 106/68/111
f 106/68/111 107/69/112 104/66/109
f 104/66/109 107/69/112 108/70/113
f 109/71/114 108/70/113 107/69/112
f 109/71/114 110/72/115 108/70/113
f 111/73/116 110/72/115 109/71/114
f 110/72/115 111/73/116 112/74/117
f 112/74/117 111/73/116 113/63/118
f 113/63/118 102/64/107 112/74/117
f 102/64/107 113/63/118 114/62/119
f 114/62/119 103/65/108 102/64/107
f 115/75/120 103/65/108 114/62/119
f 100/62/105 103/65/108 115/75/120
f 115/75/120 116/76/121 100/62/105
f 100/62/105 116/76/121 117/77/122
f 117/77/122 116/76/121 118/78/76
f 119/79/123 117/77/122 118/78/76
f 120/80/124 119/79/123 118/78/76
f 118/78/76 116/76/121 115/75/120
f 121/81/125 122/80/126 105/67/110
f 106/68/111 105/67/110 122/80/126
f 122/80/126 118/78/76 123/79/127
f 122/80/126 123/79/127 106/68/111
f 124/82/128 106/68/111 123/79/127
f 107/69/112 106/68/111 124/82/128
f 124/82/128 125/83/129 107/69/112
f 107/69/112 125/83/129 109/71/114
f 111/73/116 109/71/114 125/83/129
f 125/83/129 113/63/118 111/73/116
f 114/62/119 113/63/118 125/83/129
f 125/83/129 124/82/128 114/62/119
f 114/62/119 124/82/128 126/77/130
f 123/79/127 126/77/130 124/82/128
f 123/79/127 118/78/76 126/77/130
f 126/77/130 118/78/76 127/76/131
f 115/75/120 127/76/131 118/78/76
f 114/62/119 127/76/131 115/75/120
f 126/77/130 127/76/131 114/62/119
f 128/68/132 119/79/123 120/80/124
f 120/80/124 129/67/133 128/68/132
f 128/68/132 129/67/133 130/66/134
f 131/84/135 130/66/134 129/67/133
f 132/85/136 130/66/134 131/84/135
f 131/84/135 133/86/137 132/85/136
f 132/85/136 133/86/137 110/72/115
f 134/85/138 110/72/115 133/86/137
f 108/70/113 110/72/115 134/85/138
f 108/70/113 134/85/138 104/66/109
f 131/84/135 104/66/109 134/85/138
f 105/67/110 104/66/109 131/84/135
f 131/84/135 135/87/139 105/67/110
f 105/67/110 135/87/139 121/81/125
f 121/81/125 135/87/139 129/67/133
f 129/67/133 120/80/124 121/81/125
f 121/81/125 120/80/124 118/78/76
f 121/81/125 118/78/76 122/80/126
f 134/85/138 133/86/137 131/84/135
f 129/67/133 135/87/139 131/84/135
f 136/70/140 132/85/136 110/72/115
f 130/66/134 132/85/136 136/70/140
f 136/70/140 137/69/141 130/66/134
f 130/66/134 137/69/141 128/68/132
f 138/82/142 128/68/132 137/69/141
f 119/79/123 128/68/132 138/82/142
f 138/82/142 117/77/122 119/79/123
f 117/77/122 138/82/142 100/62/105
f 100/62/105 138/82/142 139/83/143
f 139/83/143 101/63/106 100/62/105
f 140/73/144 101/63/106 139/83/143
f 102/64/107 101/63/106 140/73/144
f 140/73/144 112/74/117 102/64/107
f 112/74/117 140/73/144 110/72/115
f 140/73/144 141/71/145 110/72/115
f 141/71/145 136/70/140 110/72/115
f 137/69/141 136/70/140 141/71/145
f 141/71/145 139/83/143 137/69/141
f 137/69/141 139/83/143 138/82/142
f 139/83/143 141/71/145 140/73/144
f 10/8/146 40/29/147 39/29/147
f 39/29/147 20/8/146 10/8/146
f 142/14/148 10/8/146 20/8/146
f 20/8/146 21/14/148 142/14/148
f 77/50/149 142/14/148 21/14/148
f 21/14/148 78/50/149 77/50/149
f 143/45/150 68/45/150 70/47/151
f 72/49/152 68/45/150 143/45/150
f 143/45/150 73/49/152 72/49/152
f 142/14/153 77/50/154 76/15/155
f 142/14/153 76/15/155 11/9/11
f 11/9/11 10/8/10 142/14/153
f 1/1/156 4/1/157 6/5/158
f 6/5/158 8/5/159 1/1/156
f 8/5/159 6/5/158 36/27/160
f 36/27/160 52/27/160 8/5/159
f 34/25/161 52/27/160 36/27/160
f 81/15/162 83/54/163 96/88/164
f 83/54/163 85/56/165 96/88/164
f 85/56/165 87/58/166 96/88/164
f 87/58/166 89/60/167 96/88/164
f 89/60/167 90/60/168 96/88/164
f 98/54/169 79/15/170 96/56/164
f 79/15/170 81/15/162 96/56/164
f 90/60/168 93/60/171 96/56/164
f 93/60/171 94/58/172 96/56/164
f 74/48/173 73/49/173 143/45/174
f 75/46/175 74/48/173 143/45/174
f 143/45/174 70/47/176 75/46/175
