# Blender 3.6.1
# www.blender.org
mtllib bababalongER.mtl
o w_357
v 0.231612 -1.284220 3.939255
v 0.230443 -1.387121 4.867538
v 0.230595 -0.985176 5.750995
v 0.228133 -1.284850 3.939528
v 0.230453 -1.283589 3.938978
v -0.154113 -0.661110 3.667716
v -0.123036 0.101914 5.976848
v 0.615035 -0.661118 3.667723
v 0.596145 2.927103 7.084475
v 0.615024 1.321717 7.147174
v 0.552844 1.352505 7.201195
v 0.552836 0.256353 6.896065
v -0.091944 1.352511 7.201191
v -0.091952 0.256358 6.896060
v -0.154131 0.311348 6.846822
v -0.154124 1.321725 7.147165
v -0.138095 2.931917 7.067871
v -0.154077 3.082558 3.674348
v 0.061228 8.935226 833.181702
v 0.038656 8.679375 834.806946
v 0.583932 0.101907 5.976853
v 0.615017 0.311341 6.846829
v 0.615066 1.332602 2.390398
v 0.423915 -0.544922 2.842025
v 0.615063 1.845025 3.281332
v -0.154083 1.332609 2.390391
v -0.154086 1.845033 3.281325
v 0.615070 1.306182 1.844543
v 0.230473 -0.765423 2.196379
v 0.615070 1.013374 1.415716
v 0.905051 -0.862067 1.345083
v 0.615064 -0.545114 0.437062
v 1.037824 -1.735135 1.239260
v 0.615051 -2.030065 0.244941
v 1.090076 -2.446651 1.395067
v 0.615042 -3.012649 0.173885
v 0.562456 -3.581690 0.293112
v 0.230471 -2.946925 -0.064403
v 0.230464 -3.516052 0.055091
v -0.101532 -3.581683 0.293106
v 0.230454 -4.014144 0.741780
v -0.549307 -3.075543 1.472755
v -0.154106 -3.012642 0.173878
v 0.230497 1.339046 1.725397
v -0.154078 1.306189 1.844536
v 0.230479 -1.964340 0.006655
v -0.154097 -2.030058 0.244935
v -0.629151 -2.446634 1.395053
v 0.230451 -2.598244 2.620142
v 0.230446 -3.183284 2.596844
v 1.010220 -3.075558 1.472769
v 0.671597 -3.603899 1.300551
v -0.210691 -3.603890 1.300543
v 0.230446 -3.484199 2.297231
v 0.230446 -3.597607 2.182864
v 0.230447 -3.993042 1.534916
v 0.230466 -1.518650 2.116432
v -0.576882 -1.735119 1.239245
v -0.154084 -0.545107 0.437055
v 0.230492 -0.479388 0.198774
v -0.444093 -0.862055 1.345072
v -0.154078 1.013381 1.415711
v 0.230500 1.079100 1.177429
v 0.037023 -0.544918 2.842021
v -0.154070 3.526572 3.401555
v 0.615079 3.526565 3.401561
v 0.615072 3.082551 3.674355
v 0.387090 8.935225 833.181702
v 0.409630 8.679371 834.806946
v 0.387085 9.518540 834.500916
v 0.879987 0.731009 4.367912
v 0.879973 0.896084 6.254479
v 0.230451 0.604234 6.280015
v 0.230491 2.630720 3.884829
v 0.943468 2.371041 3.907557
v 0.230480 1.612535 3.973920
v 1.211998 1.907694 3.948102
v 1.160279 1.418867 3.990874
v 1.416600 1.383678 4.310807
v 1.416586 1.548755 6.197377
v 0.727875 1.138486 6.550122
v 0.230451 0.894555 6.571461
v -0.419065 0.896096 6.254469
v -0.266967 1.138496 6.550115
v -0.955664 1.548779 6.197357
v -0.698516 1.635540 6.506619
v -1.006263 2.167344 6.143232
v -0.751929 2.124584 6.463827
v -0.668393 2.750308 6.092226
v -0.484247 2.589459 6.423153
v 0.230460 1.816300 6.490811
v 0.230472 2.824224 6.402618
v 1.159434 1.635521 6.506635
v 0.230477 3.053021 6.065759
v 0.945185 2.589445 6.423166
v 1.212857 2.124563 6.463844
v 1.467198 2.167319 6.143253
v 1.467212 2.002244 4.256686
v 1.129354 2.585216 4.205670
v 0.230491 2.909133 4.177308
v -0.668380 2.585232 4.205655
v 1.129340 2.750291 6.092240
v -0.955649 1.383702 4.310787
v -1.006248 2.002269 4.256664
v -0.751032 1.907714 3.948085
v -0.482491 2.371054 3.907544
v -0.699322 1.418886 3.990858
v -0.419051 0.731022 4.367899
v -0.268786 0.919672 4.034541
v 0.230470 0.674457 4.056004
v 0.230465 0.439160 4.393446
v 0.729733 0.919663 4.034552
v 0.061223 9.518543 834.500916
v 0.497314 2.221070 2.251242
v 0.497298 1.386143 3.062446
v -0.036327 1.386149 3.062443
v -0.036312 2.221075 2.251237
v 0.497316 2.454151 2.230847
v -0.036309 2.454156 2.230843
v -0.036320 2.085387 3.001257
v 0.230491 2.769229 3.914437
v 0.497305 2.085384 3.001261
v 0.411415 8.632884 834.850037
v 0.599684 8.272333 834.881531
v 0.606008 2.568524 7.111229
v 0.394018 2.242274 7.139772
v 0.387693 7.946290 834.912537
v 0.518283 1.991699 7.161700
v 0.511958 7.695923 834.936829
v 0.393550 1.756158 7.182310
v 0.387224 7.460382 834.957336
v 0.224129 7.396032 834.963074
v 0.230453 1.691808 7.187939
v 0.067360 1.756160 7.182305
v 0.061035 7.460384 834.957336
v -0.063694 7.695929 834.936829
v -0.057369 1.991705 7.161696
v 0.060577 7.946293 834.912537
v 0.066902 2.242277 7.139771
v -0.151406 8.272341 834.881531
v -0.145082 2.568532 7.111223
v 0.038655 8.632888 834.850037
v -0.132323 2.938359 7.065606
vn 0.0083 -0.9866 0.1629
vn -1.0000 0.0011 -0.0011
vn -0.9415 -0.3212 0.1016
vn -0.0840 -0.9657 -0.2458
vn -1.0000 0.0015 -0.0011
vn 0.2426 -0.7269 -0.6425
vn -0.9803 -0.1969 -0.0164
vn -0.9802 -0.1971 -0.0167
vn -0.8298 -0.4515 0.3280
vn 0.9802 -0.1975 -0.0158
vn 0.9473 -0.0363 0.3182
vn 0.8833 -0.0732 0.4630
vn 0.3245 -0.0801 0.9425
vn 0.3697 -0.6892 0.6231
vn -0.3272 -0.0796 0.9416
vn -0.3714 -0.6874 0.6242
vn -0.9058 -0.3109 0.2880
vn -0.8807 -0.0786 0.4671
vn -0.9502 -0.0274 0.3105
vn -1.0000 -0.0011 0.0017
vn -0.9981 0.0615 -0.0052
vn -0.9991 -0.0327 -0.0267
vn 0.8298 -0.4514 0.3280
vn 0.9064 -0.3134 0.2831
vn 0.8689 -0.3497 0.3504
vn 0.8958 -0.4385 0.0721
vn 1.0000 -0.0003 -0.0000
vn 0.7836 0.5871 -0.2033
vn 0.9609 -0.1753 -0.2142
vn 0.8295 0.2967 -0.4732
vn -0.7868 0.5861 -0.1937
vn -0.8295 0.2968 -0.4732
vn 0.7403 0.6498 -0.1727
vn -0.0000 -0.1734 0.9849
vn 0.8454 0.4348 -0.3103
vn 0.9677 0.1297 0.2163
vn 0.7660 0.2314 -0.5997
vn 0.9902 0.0887 0.1075
vn 0.7605 0.0588 -0.6467
vn 0.9875 0.0342 0.1536
vn 0.7623 -0.0944 -0.6403
vn 0.6925 -0.5227 -0.4973
vn -0.0000 -0.0653 -0.9979
vn -0.0000 -0.4645 -0.8856
vn -0.6925 -0.5227 -0.4973
vn -0.0000 -0.9791 -0.2032
vn -0.9325 -0.3092 0.1868
vn -0.7623 -0.0944 -0.6403
vn 0.0087 0.9553 -0.2955
vn -0.7521 0.6310 -0.1903
vn -0.0000 0.1019 -0.9948
vn -0.7604 0.0589 -0.6467
vn -0.9875 0.0342 0.1536
vn -0.0000 0.1619 0.9868
vn -0.0000 -0.3820 0.9241
vn 0.9325 -0.3092 0.1868
vn 0.8162 -0.5776 0.0149
vn -0.8162 -0.5776 0.0149
vn -0.0000 -0.7067 0.7075
vn -0.0000 -0.7527 0.6583
vn -0.0000 -0.9515 0.3077
vn -0.0000 0.1263 0.9920
vn -0.9902 0.0887 0.1075
vn -0.7660 0.2315 -0.5997
vn -0.0000 0.3332 -0.9429
vn -0.9677 0.1297 0.2163
vn -0.8454 0.4348 -0.3103
vn -0.0000 0.7152 -0.6989
vn -0.9609 -0.1753 -0.2142
vn -0.3683 0.0663 -0.9273
vn 0.3683 0.0663 -0.9273
vn 1.0000 -0.0013 0.0021
vn 0.9972 0.0754 -0.0020
vn 0.9995 0.0314 -0.0089
vn 0.9997 0.0231 -0.0102
vn 0.5759 -0.7771 -0.2538
vn 0.5742 -0.7197 0.3903
vn 0.0029 -0.9166 0.3999
vn -0.0000 0.4277 -0.9039
vn 0.3131 0.3065 -0.8989
vn -0.0000 -0.0872 -0.9962
vn 0.4749 0.0252 -0.8797
vn 0.4444 -0.2743 -0.8528
vn 0.8804 -0.3782 -0.2861
vn 0.8791 -0.3217 0.3517
vn 0.2894 -0.2946 0.9107
vn 0.0078 -0.4333 0.9012
vn -0.5777 -0.7187 0.3870
vn -0.2921 -0.2883 0.9119
vn -0.8791 -0.3217 0.3516
vn -0.4484 -0.1281 0.8846
vn -0.9231 0.2346 0.3048
vn -0.4793 0.1715 0.8607
vn -0.6041 0.7555 0.2537
vn -0.3097 0.4638 0.8301
vn -0.0000 0.0872 0.9962
vn -0.0000 0.5685 0.8227
vn 0.4484 -0.1281 0.8846
vn -0.0000 0.9728 0.2317
vn 0.3097 0.4638 0.8301
vn 0.4793 0.1715 0.8608
vn 0.9231 0.2345 0.3049
vn 0.9234 0.1802 -0.3389
vn 0.6108 0.6953 -0.3788
vn -0.0000 0.9223 -0.3866
vn -0.6108 0.6953 -0.3788
vn 0.6041 0.7555 0.2537
vn -0.8804 -0.3781 -0.2861
vn -0.9234 0.1802 -0.3390
vn -0.4749 0.0252 -0.8797
vn -0.3131 0.3065 -0.8989
vn -0.4444 -0.2743 -0.8528
vn -0.5759 -0.7771 -0.2538
vn -0.2876 -0.4428 -0.8493
vn -0.0000 -0.5800 -0.8146
vn -0.0000 -0.9728 -0.2315
vn 0.2876 -0.4428 -0.8493
vn -0.9893 0.1456 0.0091
vn -0.9987 0.0505 -0.0059
vn -0.9997 0.0231 -0.0102
vn -0.0000 -0.4161 -0.9093
vn -0.0000 -0.6968 -0.7172
vn -0.9910 0.0117 0.1336
vn -0.9914 0.0114 0.1307
vn -0.9641 0.0231 0.2644
vn -1.0000 -0.0000 -0.0000
vn 0.9910 0.0117 0.1336
vn 0.9641 0.0231 0.2644
vn 0.9914 0.0114 0.1307
vn 1.0000 -0.0000 -0.0000
vn 0.5298 0.8481 -0.0058
vn 0.9972 -0.0745 0.0005
vn 0.9662 -0.2578 0.0019
vn 0.6822 0.7312 -0.0049
vn 0.9965 -0.0832 0.0006
vn 0.9996 -0.0300 0.0002
vn 1.0000 0.0100 -0.0001
vn 0.9993 -0.0378 0.0003
vn 0.6755 -0.7373 0.0051
vn 0.6579 -0.7531 0.0052
vn -0.0000 -1.0000 0.0069
vn -0.6755 -0.7373 0.0051
vn -0.6579 -0.7531 0.0052
vn -0.9993 -0.0378 0.0003
vn -1.0000 0.0100 -0.0001
vn -0.9996 -0.0300 0.0002
vn -0.9965 -0.0831 0.0006
vn -0.9974 -0.0726 0.0005
vn -0.9683 -0.2499 0.0018
vn -0.5280 0.8492 -0.0058
vn -0.6676 0.7445 -0.0050
vn 0.0001 0.0915 0.9958
vn -0.0029 0.0919 0.9958
vn -0.0002 0.0917 0.9958
vn -0.0097 0.0919 0.9957
vn 0.0066 0.0905 0.9959
vn 0.0017 0.0907 0.9959
vn -0.0016 0.0898 0.9960
vn -0.0028 0.0901 0.9959
vn -0.0000 0.0958 0.9954
vn 0.0031 0.0909 0.9959
vn 0.0024 0.0902 0.9959
vn -0.0000 -0.9463 0.3232
vn -0.0000 -0.9984 0.0559
vn -0.0000 -0.8349 -0.5504
vn -0.0000 -0.8347 -0.5507
vn 0.0002 -0.3994 -0.9168
vn 0.0004 -0.3993 -0.9168
vn -0.0000 0.9777 -0.2101
vn -0.0000 0.9146 -0.4044
vn -0.0000 0.8745 0.4851
vn -0.0000 0.5235 0.8520
vn -0.0000 0.9987 -0.0504
vn -0.0000 0.8004 -0.5994
vn -0.0000 0.9020 0.4317
vn -0.0000 0.3425 0.9395
vn -0.0000 0.3426 0.9395
vt 0.727915 0.335010
vt 0.661332 0.309095
vt 0.580449 0.329193
vt 0.726720 0.335413
vt 0.752984 0.425179
vt 0.568255 0.455068
vt 0.472417 0.874921
vt 0.473473 0.653974
vt 0.469471 0.657534
vt 0.497766 0.511416
vt 0.501865 0.512182
vt 0.707620 0.936073
vt 0.113427 0.926941
vt 0.000338 0.872554
vt 0.569983 0.453669
vt 0.809010 0.712329
vt 0.785431 0.431507
vt 0.742988 0.771690
vt 0.844378 0.696347
vt 0.830986 0.423377
vt 0.879747 0.680365
vt 0.896308 0.424970
vt 0.935330 0.468031
vt 0.909165 0.306948
vt 0.988489 0.285844
vt 0.902564 0.181476
vt 0.992216 0.114940
vt 0.991071 0.048057
vt 0.991034 0.048072
vt 0.957016 0.017715
vt 0.905621 0.114391
vt 0.986677 0.196739
vt 0.817103 0.134512
vt 0.835584 0.082051
vt 0.908677 0.047307
vt 0.848945 0.043928
vt 0.854087 0.029594
vt 0.916641 0.021693
vt 0.828418 0.286210
vt 0.905865 0.244212
vt 0.935885 0.469797
vt 0.945523 0.478343
vt 0.920903 0.032651
vt 0.724125 1.000000
vt 0.016752 0.990868
vt 0.535688 0.849185
vt 0.673963 0.849277
vt 0.673953 0.883633
vt 0.517482 0.622307
vt 0.517473 0.652874
vt 0.517447 0.742164
vt 0.517457 0.707418
vt 0.517440 0.764961
vt 0.535711 0.772354
vt 0.673986 0.772446
vt 0.692245 0.823993
vt 0.692236 0.852708
vt 0.692262 0.765483
vt 0.674008 0.699630
vt 0.692279 0.707915
vt 0.674029 0.631005
vt 0.692296 0.653191
vt 0.692269 0.744204
vt 0.692304 0.625554
vt 0.674040 0.595370
vt 0.535733 0.699538
vt 0.535753 0.630913
vt 0.535764 0.592784
vt 0.517422 0.823726
vt 0.517414 0.852591
vt 0.535678 0.883541
vt 0.813343 0.835383
vt 0.761264 0.711609
vt 0.813343 0.867473
vt 0.761264 0.807878
vt 0.692615 0.890394
vt 0.000338 0.827405
vt 0.477920 0.827405
vt 0.475909 0.868804
vt 0.477751 0.782488
vt 0.000169 0.782488
vt 0.477582 0.747990
vt 0.000000 0.747990
vt 0.477582 0.713260
vt 0.000000 0.713260
vt 0.476580 0.870054
vt 0.475909 0.872554
vt 0.000141 0.776160
s 1
usemtl w_357_long_golden
f 1/1/1 2/2/2 3/3/3
f 4/1/4 1/4/1 3/3/3
f 2/2/5 4/1/4 5/1/6
f 4/1/4 6/5/7 5/1/6
f 4/1/4 3/3/3 6/5/8
f 3/3/3 7/6/9 6/5/8
f 8/5/10 9/7/11 10/8/12
f 11/9/13 10/8/12 9/7/11
f 10/8/12 11/9/13 12/10/14
f 12/10/14 11/9/13 13/9/15
f 13/9/15 14/10/16 12/10/14
f 15/11/17 14/10/16 13/9/15
f 14/10/16 15/11/17 7/6/9
f 7/6/9 15/11/17 16/8/18
f 16/8/18 6/5/8 7/6/9
f 6/5/8 16/8/18 17/7/19
f 6/5/8 17/7/19 18/12/20
f 19/13/21 18/12/20 17/7/19
f 17/7/19 20/14/22 19/13/21
f 13/9/15 16/8/18 15/11/17
f 17/7/19 16/8/18 13/9/15
f 17/7/19 13/9/15 11/9/13
f 11/9/13 9/7/11 17/7/19
f 21/15/23 8/5/10 10/8/12
f 10/8/12 22/11/24 21/15/23
f 12/10/14 22/11/24 10/8/12
f 21/15/23 22/11/24 12/10/14
f 21/15/23 12/10/14 14/10/16
f 14/10/16 7/6/9 21/15/23
f 21/15/23 7/6/9 3/3/25
f 3/3/25 8/5/10 21/15/23
f 8/5/10 3/3/25 5/1/26
f 5/1/26 3/3/25 2/2/27
f 23/16/28 8/5/10 24/17/29
f 23/16/28 25/18/30 8/5/10
f 26/16/31 27/18/32 25/18/30
f 25/18/30 23/16/28 26/16/31
f 26/16/31 23/16/28 28/19/33
f 24/17/29 28/19/33 23/16/28
f 28/19/33 24/17/29 29/20/34
f 29/20/34 30/21/35 28/19/33
f 30/21/35 29/20/34 31/22/36
f 30/21/35 31/22/36 32/23/37
f 32/23/37 31/22/36 33/24/38
f 33/24/38 34/25/39 32/23/37
f 34/25/39 33/24/38 35/26/40
f 35/26/40 36/27/41 34/25/39
f 37/28/42 36/27/41 35/26/40
f 38/27/43 36/27/41 37/28/42
f 37/28/42 39/29/44 38/27/43
f 38/27/43 39/29/44 40/28/45
f 40/28/45 39/29/44 41/30/46
f 42/31/47 40/28/45 41/30/46
f 37/28/42 41/30/46 39/29/44
f 34/25/39 36/27/41 38/27/43
f 33/24/38 31/22/36 29/20/34
f 40/28/45 43/27/48 38/27/43
f 44/19/49 28/19/33 30/21/35
f 28/19/33 44/19/49 26/16/31
f 44/19/49 45/19/50 26/16/31
f 32/23/37 34/25/39 46/25/51
f 38/27/43 46/25/51 34/25/39
f 47/32/52 46/25/51 38/27/43
f 38/27/43 43/27/48 47/32/52
f 47/32/52 43/27/48 48/26/53
f 48/26/53 43/27/48 40/28/45
f 40/28/45 42/31/47 48/26/53
f 49/33/54 48/26/53 42/31/47
f 42/31/47 50/34/55 49/33/54
f 49/33/54 50/34/55 51/31/56
f 50/34/55 52/35/57 51/31/56
f 41/30/46 53/35/58 42/31/47
f 50/34/55 42/31/47 53/35/58
f 50/34/55 53/35/58 54/36/59
f 50/34/55 54/36/59 52/35/57
f 54/36/59 55/37/60 52/35/57
f 52/35/57 55/37/60 56/38/61
f 41/30/46 52/35/57 56/38/61
f 51/31/56 52/35/57 41/30/46
f 41/30/46 37/28/42 51/31/56
f 35/26/40 51/31/56 37/28/42
f 51/31/56 35/26/40 49/33/54
f 57/39/62 49/33/54 35/26/40
f 48/26/53 49/33/54 57/39/62
f 57/39/62 58/40/63 48/26/53
f 48/26/53 58/40/63 47/32/52
f 59/41/64 47/32/52 58/40/63
f 46/25/51 47/32/52 59/41/64
f 59/41/64 60/42/65 46/25/51
f 53/35/58 55/37/60 54/36/59
f 53/35/58 56/43/61 55/37/60
f 41/30/46 56/43/61 53/35/58
f 35/26/40 33/24/38 57/39/62
f 29/20/34 57/39/62 33/24/38
f 58/40/63 57/39/62 29/20/34
f 29/20/34 61/22/66 58/40/63
f 58/40/63 61/22/66 59/41/64
f 62/21/67 59/41/64 61/22/66
f 60/42/65 59/41/64 62/21/67
f 62/21/67 63/21/68 60/42/65
f 62/21/67 61/22/66 29/20/34
f 46/25/51 60/42/65 32/23/37
f 30/21/35 32/23/37 60/42/65
f 60/42/65 63/21/68 30/21/35
f 30/21/35 63/21/68 44/19/49
f 44/19/49 63/21/68 62/21/67
f 62/21/67 45/19/50 44/19/49
f 45/19/50 62/21/67 29/20/34
f 29/20/34 64/17/69 45/19/50
f 26/16/31 45/19/50 64/17/69
f 64/17/69 6/5/8 26/16/31
f 26/16/31 6/5/8 27/18/32
f 6/5/8 18/12/20 27/18/32
f 27/18/32 18/12/20 65/44/70
f 27/18/32 65/44/70 66/44/71
f 66/44/71 25/18/30 27/18/32
f 25/18/30 66/44/71 67/12/72
f 8/5/10 25/18/30 67/12/72
f 8/5/10 67/12/72 9/7/11
f 9/7/11 67/12/72 68/13/73
f 68/13/73 69/14/74 9/7/11
f 68/13/73 70/45/75 69/14/74
f 71/46/76 72/47/77 73/48/78
f 74/49/79 75/50/80 76/51/81
f 75/50/80 77/52/82 76/51/81
f 77/52/82 78/53/83 76/51/81
f 79/54/84 78/53/83 77/52/82
f 78/53/83 79/54/84 71/46/76
f 71/46/76 79/54/84 80/55/85
f 80/55/85 72/47/77 71/46/76
f 81/56/86 72/47/77 80/55/85
f 73/48/78 72/47/77 81/56/86
f 81/56/86 82/57/87 73/48/78
f 83/47/88 73/48/78 82/57/87
f 82/57/87 84/56/89 83/47/88
f 85/55/90 83/47/88 84/56/89
f 84/56/89 86/58/91 85/55/90
f 87/59/92 85/55/90 86/58/91
f 86/58/91 88/60/93 87/59/92
f 89/61/94 87/59/92 88/60/93
f 88/60/93 90/62/95 89/61/94
f 90/62/95 91/63/96 92/64/97
f 88/60/93 91/63/96 90/62/95
f 86/58/91 91/63/96 88/60/93
f 84/56/89 91/63/96 86/58/91
f 91/63/96 84/56/89 82/57/87
f 82/57/87 81/56/86 91/63/96
f 81/56/86 93/58/98 91/63/96
f 80/55/85 93/58/98 81/56/86
f 94/65/99 89/61/94 90/62/95
f 90/62/95 92/64/97 94/65/99
f 94/65/99 92/64/97 95/62/100
f 95/62/100 92/64/97 91/63/96
f 96/60/101 95/62/100 91/63/96
f 93/58/98 96/60/101 91/63/96
f 97/59/102 96/60/101 93/58/98
f 93/58/98 80/55/85 97/59/102
f 97/59/102 80/55/85 79/54/84
f 79/54/84 98/66/103 97/59/102
f 77/52/82 98/66/103 79/54/84
f 98/66/103 77/52/82 75/50/80
f 75/50/80 99/67/104 98/66/103
f 99/67/104 75/50/80 74/49/79
f 74/49/79 100/68/105 99/67/104
f 101/67/106 100/68/105 74/49/79
f 94/65/99 100/68/105 101/67/106
f 101/67/106 89/61/94 94/65/99
f 99/67/104 100/68/105 94/65/99
f 94/65/99 102/61/107 99/67/104
f 98/66/103 99/67/104 102/61/107
f 102/61/107 97/59/102 98/66/103
f 96/60/101 97/59/102 102/61/107
f 102/61/107 95/62/100 96/60/101
f 95/62/100 102/61/107 94/65/99
f 103/54/108 104/66/109 105/52/110
f 106/50/111 105/52/110 104/66/109
f 104/66/109 101/67/106 106/50/111
f 74/49/79 106/50/111 101/67/106
f 74/49/79 76/51/81 106/50/111
f 106/50/111 76/51/81 105/52/110
f 105/52/110 76/51/81 107/53/112
f 105/52/110 107/53/112 103/54/108
f 108/46/113 103/54/108 107/53/112
f 107/53/112 109/69/114 108/46/113
f 108/46/113 109/69/114 110/70/115
f 110/70/115 109/69/114 76/51/81
f 107/53/112 76/51/81 109/69/114
f 110/70/115 111/71/116 108/46/113
f 89/61/94 101/67/106 104/66/109
f 104/66/109 87/59/92 89/61/94
f 87/59/92 104/66/109 103/54/108
f 103/54/108 85/55/90 87/59/92
f 85/55/90 103/54/108 108/46/113
f 108/46/113 83/47/88 85/55/90
f 73/48/78 83/47/88 108/46/113
f 108/46/113 111/71/116 73/48/78
f 73/48/78 111/71/116 71/46/76
f 71/46/76 111/71/116 110/70/115
f 110/70/115 112/69/117 71/46/76
f 76/51/81 112/69/117 110/70/115
f 78/53/83 112/69/117 76/51/81
f 71/46/76 112/69/117 78/53/83
f 19/13/118 20/14/119 113/45/120
f 114/72/121 115/73/122 116/73/122
f 116/73/122 117/72/121 114/72/121
f 118/74/81 114/72/121 117/72/121
f 117/72/121 119/74/81 118/74/81
f 120/75/123 116/73/124 121/76/125
f 116/73/124 120/75/123 117/72/126
f 117/72/126 120/75/123 119/74/126
f 122/75/127 121/76/128 115/73/129
f 115/73/129 114/72/130 122/75/127
f 114/72/130 118/74/130 122/75/127
f 123/14/131 124/77/132 125/78/133
f 125/78/133 9/79/134 123/14/131
f 126/80/135 125/78/133 124/77/132
f 124/77/132 127/81/136 126/80/135
f 128/82/137 126/80/135 127/81/136
f 127/81/136 129/83/138 128/82/137
f 130/84/139 128/82/137 129/83/138
f 129/83/138 131/85/140 130/84/139
f 130/84/139 131/85/140 132/85/141
f 132/85/141 133/84/141 130/84/139
f 134/84/142 133/84/141 132/85/141
f 132/85/141 135/85/143 134/84/142
f 134/84/142 135/85/143 136/83/144
f 136/83/144 137/82/145 134/84/142
f 137/82/145 136/83/144 138/81/146
f 138/81/146 139/80/147 137/82/145
f 139/80/147 138/81/146 140/77/148
f 140/77/148 141/78/149 139/80/147
f 141/78/149 140/77/148 142/14/150
f 142/14/150 143/86/151 141/78/149
f 143/86/151 142/14/150 123/14/131
f 123/14/131 9/87/134 143/86/151
f 132/85/152 131/85/153 127/81/154
f 131/85/153 129/83/155 127/81/154
f 124/77/156 123/14/157 127/81/154
f 123/14/157 142/14/158 127/81/154
f 142/14/158 140/77/159 127/88/154
f 140/77/159 138/81/160 127/88/154
f 138/81/160 136/83/161 127/88/154
f 136/83/161 135/85/162 127/88/154
f 135/85/162 132/85/152 127/88/154
f 29/20/163 24/17/164 64/17/164
f 64/17/164 24/17/164 8/5/165
f 8/5/165 6/5/166 64/17/164
f 6/5/166 8/5/165 1/1/167
f 1/1/167 4/1/168 6/5/166
f 19/13/169 113/45/170 70/45/170
f 70/45/170 68/13/169 19/13/169
f 18/12/171 19/13/169 68/13/169
f 68/13/169 67/12/171 18/12/171
f 65/44/172 18/12/171 67/12/171
f 67/12/171 66/44/172 65/44/172
f 122/75/173 120/75/173 121/76/174
f 119/74/175 120/75/173 122/75/173
f 122/75/173 118/74/175 119/74/175
f 70/45/176 113/45/176 20/14/177
f 20/14/177 69/14/177 70/45/176
